<svg xmlns="http://www.w3.org/2000/svg" xmlns:xlink="http://www.w3.org/1999/xlink" xmlns:lucid="lucid" width="4214.17" height="2483"><g transform="translate(-32612.693325930562 -17060.585221017227)" lucid:page-tab-id="0_0"><path d="M-7227.47 0H38008.2v23981.86H-7227.47z" fill="#fff"/><path d="M32614.2 17068.1a6 6 0 0 1 6-6h713.9a6 6 0 0 1 6 6v8a14.48 14.48 0 0 1-4.23 10.23l-1.52 1.5a14.48 14.48 0 0 1-10.24 4.25h-703.9a6 6 0 0 1-6-6z" fill="#fff"/><path d="M33340.1 17062.1v20l-10 10h-715.9" stroke="#3a414a" stroke-width="3" fill="none"/><path d="M32614.2 17068.1a6 6 0 0 1 6-6h4199.16a6 6 0 0 1 6 6v2468a6 6 0 0 1-6 6H32620.2a6 6 0 0 1-6-6z" stroke="#3a414a" stroke-width="3" fill="none"/><use xlink:href="#a" transform="matrix(1,0,0,1,32622.19332593295,17062.08522101863) translate(0 25.06666666666665)"/><use xlink:href="#b" transform="matrix(1,0,0,1,32622.19332593295,17062.08522101863) translate(43.51851851851848 25.06666666666665)"/><use xlink:href="#c" transform="matrix(1,0,0,1,32622.19332593295,17062.08522101863) translate(153.62037037037024 25.06666666666665)"/><use xlink:href="#d" transform="matrix(1,0,0,1,32622.19332593295,17062.08522101863) translate(297.8407407407405 25.06666666666665)"/><path d="M33500.1 18418.62h400v132.7h-400z" fill="none"/><use xlink:href="#e" transform="matrix(1,0,0,1,33500.10849062263,18418.619690226373) translate(66.7777777777778 50.5)"/><use xlink:href="#f" transform="matrix(1,0,0,1,33500.10849062263,18418.619690226373) translate(128.88888888888889 50.5)"/><use xlink:href="#g" transform="matrix(1,0,0,1,33500.10849062263,18418.619690226373) translate(204.44444444444443 50.5)"/><use xlink:href="#h" transform="matrix(1,0,0,1,33500.10849062263,18418.619690226373) translate(299.88888888888886 50.5)"/><use xlink:href="#i" transform="matrix(1,0,0,1,33500.10849062263,18418.619690226373) translate(15.666666666666714 98.49999999999999)"/><use xlink:href="#j" transform="matrix(1,0,0,1,33500.10849062263,18418.619690226373) translate(155.66666666666669 98.49999999999999)"/><use xlink:href="#k" transform="matrix(1,0,0,1,33500.10849062263,18418.619690226373) translate(264.44444444444446 98.49999999999999)"/><path d="M33676.77 17984.2h530.8v132.7h-530.8z" fill="none"/><use xlink:href="#l" transform="matrix(1,0,0,1,33676.77256460256,17984.21108333911) translate(50.27777777777786 74.5)"/><use xlink:href="#m" transform="matrix(1,0,0,1,33676.77256460256,17984.21108333911) translate(92.50000000000006 74.5)"/><use xlink:href="#n" transform="matrix(1,0,0,1,33676.77256460256,17984.21108333911) translate(301.05555555555554 74.5)"/><path d="M32833.42 17292.04c0 24.43-19.8 44.23-44.23 44.23-24.44 0-44.24-19.8-44.24-44.23 0-24.43 19.8-44.23 44.23-44.23 24.42 0 44.22 19.8 44.22 44.24z" stroke="#3a414a"/><path d="M33178.35 17201.34c-19.55 0-35.4 15.84-35.4 35.38v106.16c0 19.55 15.85 35.4 35.4 35.4h255.9c19.53 0 35.38-15.85 35.38-35.4v-106.16c0-19.54-15.85-35.38-35.4-35.38z" stroke="#3a414a" stroke-width="2" fill="#fff"/><use xlink:href="#o" transform="matrix(1,0,0,1,33150.9591913426,17209.335809943834) translate(5.833333333333371 64.5)"/><use xlink:href="#p" transform="matrix(1,0,0,1,33150.9591913426,17209.335809943834) translate(147.7222222222222 64.5)"/><use xlink:href="#q" transform="matrix(1,0,0,1,33150.9591913426,17209.335809943834) translate(61.22222222222226 112.49999999999999)"/><path d="M33714.2 17201.34c-19.53 0-35.37 15.84-35.37 35.38v106.16c0 19.55 15.84 35.4 35.38 35.4h255.9c19.55 0 35.4-15.85 35.4-35.4v-106.16c0-19.54-15.85-35.38-35.4-35.38z" stroke="#3a414a" stroke-width="2" fill="#fff"/><use xlink:href="#r" transform="matrix(1,0,0,1,33686.82750403695,17209.335809892087) translate(86.66666666666669 64.5)"/><use xlink:href="#s" transform="matrix(1,0,0,1,33686.82750403695,17209.335809892087) translate(71.22222222222226 112.49999999999999)"/><path d="M33944.35 18090.67a6 6 0 0 1 8.48 0l35.75 35.75a6 6 0 0 1 0 8.5l-35.75 35.74a6 6 0 0 1-8.48 0l-35.75-35.75a6 6 0 0 1 0-8.48z" stroke="#3a414a" stroke-width="2" fill="#fff"/><path d="M33949.6 18427.3h-2v-99.15h2zm0-139.15h-2v-116.64h2z" stroke="#3a414a" stroke-width=".05" fill="#3a414a"/><path d="M33949.6 18171.54h-2v-4.03h2z" stroke="#3a414a" stroke-width=".05" fill="#3a414a"/><path d="M33948.6 18442.56l-4.64-14.27h9.27z" fill="#3a414a"/><path d="M33948.6 18445.8l-6.02-18.5h12.02zm-3.27-16.5l3.26 10.02 3.25-10.03z" stroke="#3a414a" stroke-width=".05" fill="#3a414a"/><use xlink:href="#t" transform="matrix(1,0,0,1,33919.88671030531,18288.151014576957) translate(0 26.666666666666657)"/><path d="M33944.35 18445.65a6 6 0 0 1 8.48 0l35.75 35.74a6 6 0 0 1 0 8.48l-35.75 35.75a6 6 0 0 1-8.48 0l-35.75-35.75a6 6 0 0 1 0-8.5z" stroke="#3a414a" stroke-width="2" fill="#fff"/><path d="M33949.6 18768.24h-2v-92.12h2zm0-132.12h-2v-109.64h2z" stroke="#3a414a" stroke-width=".05" fill="#3a414a"/><path d="M33949.6 18526.5h-2v-4.02h2z" stroke="#3a414a" stroke-width=".05" fill="#3a414a"/><path d="M33948.6 18783.5l-4.64-14.26h9.27z" fill="#3a414a"/><path d="M33948.6 18786.75l-6.02-18.5h12.02zm-3.27-16.5l3.26 10.03 3.25-10.03z" stroke="#3a414a" stroke-width=".05" fill="#3a414a"/><use xlink:href="#t" transform="matrix(1,0,0,1,33919.88671030531,18636.11563308669) translate(0 26.666666666666657)"/><path d="M33823.93 18787.75c-21.36 0-38.67 17.3-38.67 38.67v116c0 21.37 17.3 38.68 38.67 38.68h252.7c21.37 0 38.68-17.3 38.68-38.67v-116c0-21.37-17.3-38.68-38.66-38.68z" stroke="#3a414a" stroke-width="2" fill="#fff"/><use xlink:href="#u" transform="matrix(1,0,0,1,33793.25625762161,18795.74809783862) translate(0.9444444444445139 96.99999999999999)"/><use xlink:href="#v" transform="matrix(1,0,0,1,33793.25625762161,18795.74809783862) translate(149.72222222222226 96.99999999999999)"/><path d="M34381.33 18484.72l1.07.26 1.02.42.93.57.84.72.7.82.58.94.42 1 .25 1.08.1 1.06v330.88h-2v-330.8l-.08-.82-.18-.77-.3-.73-.42-.67-.5-.6-.6-.5-.67-.4-.72-.32-.76-.18-.82-.06h-184.14v-2h184.22zm-391.9 1.92v-2h162.37v2z" stroke="#3a414a" stroke-width=".05" fill="#3a414a"/><path d="M33989.46 18486.64h-4.02v-2h4.02z" stroke="#3a414a" stroke-width=".05" fill="#3a414a"/><path d="M34386.24 18837.75l-4.64-14.27h9.27z" fill="#3a414a"/><path d="M34386.24 18841l-6-18.52h12zm-3.26-16.52l3.26 10.03 3.26-10.02z" stroke="#3a414a" stroke-width=".05" fill="#3a414a"/><use xlink:href="#w" transform="matrix(1,0,0,1,34151.80070145686,18465.63726457696) translate(0 26.666666666666657)"/><path d="M34115.3 18752.88a6 6 0 0 1 6-6h246.15a6 6 0 0 1 6 6v104.8a6 6 0 0 1-6 6h-246.14a6 6 0 0 1-6-6z" stroke="#000" stroke-opacity="0" stroke-width="2" fill="#fff" fill-opacity="0"/><use xlink:href="#e" transform="matrix(1,0,0,1,34120.31360028748,18751.88354982609) translate(12.333333333333371 38.687499999999986)"/><use xlink:href="#f" transform="matrix(1,0,0,1,34120.31360028748,18751.88354982609) translate(74.44444444444446 38.687499999999986)"/><use xlink:href="#x" transform="matrix(1,0,0,1,34120.31360028748,18751.88354982609) translate(150 38.687499999999986)"/><use xlink:href="#y" transform="matrix(1,0,0,1,34120.31360028748,18751.88354982609) translate(15.611111111111143 86.68749999999997)"/><use xlink:href="#z" transform="matrix(1,0,0,1,34120.31360028748,18751.88354982609) translate(71.16666666666669 86.68749999999997)"/><path d="M33178.13 18147c-18.84 0-34.12 15.26-34.12 34.1v102.37c0 18.85 15.3 34.13 34.13 34.13h258.43c18.84 0 34.12-15.28 34.12-34.13v-102.36c0-18.84-15.28-34.1-34.12-34.1z" stroke="#3a414a" stroke-width="2" fill="#fff"/><use xlink:href="#u" transform="matrix(1,0,0,1,33152.01069385189,18154.98655334367) translate(42.22222222222226 85.5)"/><use xlink:href="#A" transform="matrix(1,0,0,1,33152.01069385189,18154.98655334367) translate(191 85.5)"/><path d="M34382 18843.75a6 6 0 0 1 8.48 0l35.75 35.74a6 6 0 0 1 0 8.48l-35.75 35.75a6 6 0 0 1-8.5 0l-35.73-35.75a6 6 0 0 1 0-8.5z" stroke="#3a414a" stroke-width="2" fill="#fff"/><path d="M32835.43 17292.04h285.9" stroke="#3a414a" stroke-width="3" fill="none"/><path d="M32835.46 17293.54h-1.62l.1-1.5-.1-1.5h1.62z" stroke="#3a414a" stroke-width=".05" fill="#3a414a"/><path d="M33137.1 17292.05l-14.26 4.63v-9.27z" stroke="#3a414a" stroke-width="3" fill="#3a414a"/><path d="M34079.4 18131.67h-87.06v-2h87.05zm204.2 0h-159.95v-2h159.95z" stroke="#3a414a" stroke-width=".05" fill="#3a414a"/><path d="M33992.37 18131.67h-1.1l.07-1-.08-1h1.1z" fill="#3a414a"/><path d="M33992.4 18131.7h-1.16l.08-1.03-.08-1.03h1.15zm-1.1-2l.07.97-.08.97h1.04v-1.95zM34284.6 18131.67h-1.02v-2h1.02z" stroke="#3a414a" stroke-width=".05" fill="#3a414a"/><use xlink:href="#w" transform="matrix(1,0,0,1,34079.389342084345,18110.664764685847) translate(0 26.666666666666657)"/><path d="M34249.74 18042.2c-19.54 0-35.4 15.84-35.4 35.38v106.16c0 19.55 15.86 35.4 35.4 35.4h255.9c19.54 0 35.38-15.85 35.38-35.4v-106.16c0-19.54-15.84-35.38-35.38-35.38z" stroke="#3a414a" stroke-width="2" fill="#fff"/><use xlink:href="#B" transform="matrix(1,0,0,1,34222.35436723978,18050.198097910285) translate(72.22222222222224 40.500000000000014)"/><use xlink:href="#C" transform="matrix(1,0,0,1,34222.35436723978,18050.198097910285) translate(183.22222222222223 40.500000000000014)"/><use xlink:href="#p" transform="matrix(1,0,0,1,34222.35436723978,18050.198097910285) translate(76.7777777777778 88.5)"/><use xlink:href="#D" transform="matrix(1,0,0,1,34222.35436723978,18050.198097910285) translate(74.44444444444446 136.5)"/><path d="M35808.1 19098.85c-17.32 0-31.38 14.05-31.38 31.4v94.15c0 17.33 14.06 31.38 31.4 31.38h255.95c17.34 0 31.4-14.05 31.4-31.38v-94.16c0-17.34-14.06-31.4-31.4-31.4z" stroke="#3a414a" stroke-width="2" fill="#fff"/><use xlink:href="#E" transform="matrix(1,0,0,1,35784.72454087629,19106.85187451966) translate(81.72222222222224 54.5)"/><use xlink:href="#F" transform="matrix(1,0,0,1,35784.72454087629,19106.85187451966) translate(52.77777777777783 102.49999999999999)"/><path d="M34253.17 19100.23c-17.33 0-31.38 14.05-31.38 31.38v94.17c0 17.34 14.04 31.4 31.37 31.4h266.13c17.34 0 31.4-14.06 31.4-31.4v-94.16c0-17.32-14.06-31.37-31.4-31.37z" stroke="#3a414a" stroke-width="2" fill="#fff"/><use xlink:href="#G" transform="matrix(1,0,0,1,34229.78638009901,19108.225597867022) translate(102.11111111111114 78.5)"/><use xlink:href="#H" transform="matrix(1,0,0,1,34229.78638009901,19108.225597867022) translate(179.88888888888889 78.5)"/><path d="M34800.66 18843.75a6 6 0 0 1 8.48 0l35.75 35.74a6 6 0 0 1 0 8.48l-35.76 35.75a6 6 0 0 1-8.48 0l-35.75-35.75a6 6 0 0 1 0-8.5z" stroke="#3a414a" stroke-width="2" fill="#fff"/><path d="M34430.47 18772.53a6 6 0 0 1 6-6h764.46a6 6 0 0 1 6 6v68.7a6 6 0 0 1-6 6h-764.46a6 6 0 0 1-6-6z" stroke="#000" stroke-opacity="0" stroke-width="2" fill="#fff" fill-opacity="0"/><use xlink:href="#e" transform="matrix(1,0,0,1,34435.47114098961,18771.529155766413) translate(139.2222222222223 43.093749999999986)"/><use xlink:href="#f" transform="matrix(1,0,0,1,34435.47114098961,18771.529155766413) translate(201.3333333333334 43.093749999999986)"/><use xlink:href="#g" transform="matrix(1,0,0,1,34435.47114098961,18771.529155766413) translate(276.8888888888889 43.093749999999986)"/><use xlink:href="#I" transform="matrix(1,0,0,1,34435.47114098961,18771.529155766413) translate(372.33333333333337 43.093749999999986)"/><use xlink:href="#J" transform="matrix(1,0,0,1,34435.47114098961,18771.529155766413) translate(416.7777777777778 43.093749999999986)"/><use xlink:href="#K" transform="matrix(1,0,0,1,34435.47114098961,18771.529155766413) translate(538.8888888888888 43.093749999999986)"/><path d="M34675.6 19098.85c-17.33 0-31.38 14.05-31.38 31.4v94.15c0 17.33 14.05 31.38 31.38 31.38h266.13c17.34 0 31.4-14.05 31.4-31.38v-94.16c0-17.34-14.06-31.4-31.4-31.4z" stroke="#3a414a" stroke-width="2" fill="#fff"/><use xlink:href="#L" transform="matrix(1,0,0,1,34652.21667644366,19106.85187445472) translate(68.83333333333337 54.5)"/><use xlink:href="#M" transform="matrix(1,0,0,1,34652.21667644366,19106.85187445472) translate(199.7222222222222 54.5)"/><use xlink:href="#N" transform="matrix(1,0,0,1,34652.21667644366,19106.85187445472) translate(86.50000000000001 102.49999999999999)"/><path d="M35360.18 19098.85c-17.34 0-31.4 14.05-31.4 31.4v94.15c0 17.33 14.06 31.38 31.4 31.38h255.96c17.33 0 31.4-14.05 31.4-31.38v-94.16c0-17.34-14.07-31.4-31.4-31.4z" stroke="#3a414a" stroke-width="2" fill="#fff"/><use xlink:href="#O" transform="matrix(1,0,0,1,35336.790528533056,19106.851874606207) translate(19.388888888888914 78.5)"/><use xlink:href="#P" transform="matrix(1,0,0,1,35336.790528533056,19106.851874606207) translate(205.83333333333331 78.5)"/><path d="M33472.13 17289.8H33657.2" stroke="#3a414a" stroke-width="3" fill="none"/><path d="M33472.17 17291.3h-1.54v-3h1.54z" stroke="#3a414a" stroke-width=".05" fill="#3a414a"/><path d="M33672.97 17289.8l-14.26 4.64v-9.27z" stroke="#3a414a" stroke-width="3" fill="#3a414a"/><path d="M34573.44 18885.24h-142.95v-3h142.94zm168.1 0h-123.84v-3h123.83z" stroke="#3a414a" stroke-width=".05" fill="#3a414a"/><path d="M34430.53 18885.24h-1.72l.1-.4.1-1.1-.1-1.1-.1-.4h1.73z" fill="#3a414a"/><path d="M34430.55 18885.26h-1.78l.1-.43.1-1.1-.1-1.08-.1-.44h1.78zm-1.7-3l.08.38.08 1.1-.07 1.1-.1.37h1.67v-2.94z" stroke="#3a414a" stroke-width=".05" fill="#3a414a"/><path d="M34757.3 18883.74l-14.27 4.63v-9.27z" fill="#3a414a"/><path d="M34762.15 18883.74l-20.62 6.7v-13.4zm-17.62 2.57l7.9-2.56-7.9-2.57z" stroke="#3a414a" stroke-width=".05" fill="#3a414a"/><use xlink:href="#w" transform="matrix(1,0,0,1,34573.440285546334,18863.737264537074) translate(0 26.666666666666657)"/><path d="M34809.12 19077.23h-3v-45.06h3zm-2.72-85.06h-3V18928h3z" stroke="#3a414a" stroke-width=".05" fill="#3a414a"/><path d="M34803.8 18926.4l1.1.1 1.1-.1.4-.1v1.73h-3v-1.72z" fill="#3a414a"/><path d="M34803.8 18926.38l1.1.08 1.1-.08.43-.1v1.77h-3.05v-1.78zm-.37 1.62h2.95v-1.66l-.38.1-1.1.07-1.1-.07-.37-.1z" stroke="#3a414a" stroke-width=".05" fill="#3a414a"/><path d="M34807.62 19093l-4.64-14.27h9.27z" fill="#3a414a"/><path d="M34807.62 19097.85l-6.7-20.62h13.4zm-2.57-17.62l2.57 7.9 2.57-7.9z" stroke="#3a414a" stroke-width=".05" fill="#3a414a"/><use xlink:href="#t" transform="matrix(1,0,0,1,34777.556134199534,18992.170126477875) translate(0 26.666666666666657)"/><path d="M34387.74 19078.6h-3v-45.74h3zm0-85.74h-3V18928h3z" stroke="#3a414a" stroke-width=".05" fill="#3a414a"/><path d="M34385.14 18926.4l1.1.1 1.1-.1.4-.1v1.73h-3v-1.72z" fill="#3a414a"/><path d="M34385.15 18926.38l1.1.08 1.08-.08.43-.1v1.77h-3.05v-1.78zm-.4 1.62h2.96v-1.66l-.36.1-1.1.07-1.1-.07-.38-.1z" stroke="#3a414a" stroke-width=".05" fill="#3a414a"/><path d="M34386.24 19094.37l-4.64-14.26h9.27z" fill="#3a414a"/><path d="M34386.24 19099.22l-6.7-20.62h13.4zm-2.57-17.62l2.57 7.92 2.57-7.92z" stroke="#3a414a" stroke-width=".05" fill="#3a414a"/><use xlink:href="#t" transform="matrix(1,0,0,1,34357.53410405949,18992.856988130574) translate(0 26.666666666666657)"/><path d="M35157.1 18882.33l1.14.27 1.08.45 1 .62.9.76.77.9.6 1 .45 1.1.28 1.13.1 1.12v224.27h-3v-224.15l-.07-.77-.17-.68-.28-.65-.37-.6-.46-.54-.54-.46-.6-.37-.65-.27-.68-.16-.76-.06h-138.26v-3h138.38zm-307.95 2.9v-3h124.2v3z" stroke="#3a414a" stroke-width=".05" fill="#3a414a"/><path d="M34849.2 18885.24h-1.73l.1-.4.08-1.1-.08-1.1-.1-.4h1.72z" fill="#3a414a"/><path d="M34849.22 18885.26h-1.78l.1-.43.1-1.1-.1-1.08-.1-.44h1.78zm-1.72-3l.1.38.08 1.1-.1 1.1-.08.37h1.67v-2.94z" stroke="#3a414a" stroke-width=".05" fill="#3a414a"/><path d="M35161.92 19129.7l-4.64-14.25h9.27z" fill="#3a414a"/><path d="M35161.92 19134.57l-6.7-20.62h13.4zm-2.57-17.62l2.57 7.9 2.57-7.9z" stroke="#3a414a" stroke-width=".05" fill="#3a414a"/><use xlink:href="#w" transform="matrix(1,0,0,1,34973.34099238358,18863.737264643984) translate(0 26.666666666666657)"/><path d="M34975.62 19177.32H35098.54" stroke="#3a414a" stroke-width="3" fill="none"/><path d="M34975.66 19178.82h-1.54v-3h1.54z" stroke="#3a414a" stroke-width=".05" fill="#3a414a"/><path d="M35114.3 19177.32l-14.26 4.63v-9.27z" stroke="#3a414a" stroke-width="3" fill="#3a414a"/><path d="M34386.24 19259.66v133.2a6 6 0 0 0 6 6h763.68a6 6 0 0 0 6-6v-152.17" stroke="#3a414a" stroke-width="3" fill="none"/><path d="M34387.74 19259.7h-3v-1.54h3z" stroke="#3a414a" stroke-width=".05" fill="#3a414a"/><path d="M35161.92 19224.92l4.63 14.27h-9.27z" stroke="#3a414a" stroke-width="3" fill="#3a414a"/><path d="M35650.03 19177.32h105.07" stroke="#3a414a" stroke-width="3" fill="none"/><path d="M35650.06 19178.82h-1.53v-3h1.53z" stroke="#3a414a" stroke-width=".05" fill="#3a414a"/><path d="M35770.87 19177.32l-14.27 4.63v-9.27z" stroke="#3a414a" stroke-width="3" fill="#3a414a"/><path d="M34117.8 18884.42h205.12" stroke="#3a414a" stroke-width="3" fill="none"/><path d="M34117.85 18885.92h-1.54v-3h1.55z" stroke="#3a414a" stroke-width=".05" fill="#3a414a"/><path d="M34338.7 18884.42l-14.28 4.64v-9.27z" stroke="#3a414a" stroke-width="3" fill="#3a414a"/><path d="M35157.67 19137.33a6 6 0 0 1 8.5 0l35.74 35.75a6 6 0 0 1 0 8.48l-35.74 35.75a6 6 0 0 1-8.5 0l-35.74-35.74a6 6 0 0 1 0-8.48z" stroke="#3a414a" stroke-width="2" fill="#fff"/><path d="M35206.17 19177.32h101" stroke="#3a414a" stroke-width="3" fill="none"/><path d="M35206.2 19178.82h-1.72l.1-.4.1-1.1-.1-1.1-.1-.4h1.73z" stroke="#3a414a" stroke-width=".05" fill="#3a414a"/><path d="M35322.93 19177.32l-14.26 4.63v-9.27z" stroke="#3a414a" stroke-width="3" fill="#3a414a"/><path d="M34543.52 18130.67h170.22" stroke="#3a414a" stroke-width="3" fill="none"/><path d="M34543.56 18132.17h-1.54v-3h1.54z" stroke="#3a414a" stroke-width=".05" fill="#3a414a"/><path d="M34729.5 18130.67l-14.25 4.63v-9.27z" stroke="#3a414a" stroke-width="3" fill="#3a414a"/><path d="M34772.87 18090.67a6 6 0 0 1 8.5 0l35.74 35.75a6 6 0 0 1 0 8.5l-35.74 35.74a6 6 0 0 1-8.5 0l-35.73-35.75a6 6 0 0 1 0-8.48z" stroke="#3a414a" stroke-width="2" fill="#fff"/><path d="M34821.37 18130.67H35053.03" stroke="#3a414a" stroke-width="3" fill="none"/><path d="M34821.4 18132.17h-1.72l.1-.4.1-1.1-.1-1.1-.1-.4h1.73z" stroke="#3a414a" stroke-width=".05" fill="#3a414a"/><path d="M35068.8 18130.67l-14.27 4.63v-9.27z" stroke="#3a414a" stroke-width="3" fill="#3a414a"/><path d="M35145.6 18130.67c0 19.45-15.78 35.2-35.23 35.2-19.45 0-35.22-15.75-35.22-35.2 0-19.46 15.77-35.22 35.22-35.22s35.22 15.76 35.22 35.22z" stroke="#3a414a" stroke-width="3" fill="#fff"/><path d="M35131.5 18130.67c0 11.67-9.46 21.13-21.13 21.13-11.67 0-21.13-9.46-21.13-21.13 0-11.68 9.46-21.14 21.13-21.14 11.67 0 21.13 9.46 21.13 21.14z" stroke="#3a414a" stroke-width="3"/><path d="M34777.12 18086.4v-210.17a6 6 0 0 0-6-6h-1889.76a6 6 0 0 0-6 6v146.42a6 6 0 0 0 6 6h54.6" stroke="#3a414a" stroke-width="3" fill="none"/><path d="M34778.62 18088.1l-.4-.1-1.1-.1-1.1.1-.4.1v-1.72h3z" stroke="#3a414a" stroke-width=".05" fill="#3a414a"/><path d="M32951.7 18028.65l-14.25 4.64v-9.28z" stroke="#3a414a" stroke-width="3" fill="#3a414a"/><path d="M35117.68 17289.8c0 22.1-17.9 40-40 40s-40-17.9-40-40 17.9-40 40-40 40 17.9 40 40z" stroke="#3a414a" stroke-width="3" fill="#fff"/><use xlink:href="#Q" transform="matrix(1,0,0,1,35042.6827811984,17254.802476451845) translate(21.671666666666674 42.937499999999986)"/><path d="M36695.8 19178.7c0 19.44-15.76 35.2-35.22 35.2-19.45 0-35.22-15.76-35.22-35.2 0-19.46 15.77-35.23 35.22-35.23 19.46 0 35.22 15.77 35.22 35.22z" stroke="#3a414a" stroke-width="3" fill="#fff"/><path d="M36681.72 19178.7c0 11.66-9.46 21.12-21.14 21.12-11.67 0-21.13-9.46-21.13-21.13 0-11.68 9.46-21.14 21.14-21.14 11.66 0 21.12 9.46 21.12 21.13z" stroke="#3a414a" stroke-width="3"/><path d="M33178.3 17940.23c-19.54 0-35.38 15.84-35.38 35.38v106.17c0 19.55 15.84 35.4 35.38 35.4h255.9c19.54 0 35.38-15.85 35.38-35.4v-106.16c0-19.53-15.84-35.37-35.38-35.37z" stroke="#3a414a" stroke-width="2" fill="#fff"/><use xlink:href="#u" transform="matrix(1,0,0,1,33150.91589261535,17948.2255977804) translate(13.444444444444485 64.5)"/><use xlink:href="#R" transform="matrix(1,0,0,1,33150.91589261535,17948.2255977804) translate(162.22222222222223 64.5)"/><use xlink:href="#S" transform="matrix(1,0,0,1,33150.91589261535,17948.2255977804) translate(24.5555555555556 112.49999999999999)"/><use xlink:href="#T" transform="matrix(1,0,0,1,33150.91589261535,17948.2255977804) translate(69.00000000000003 112.49999999999999)"/><path d="M32824.96 18108.36c0 22.1-17.9 40-40 40s-40-17.9-40-40 17.9-40 40-40 40 17.9 40 40z" stroke="#3a414a" stroke-width="3" fill="#fff"/><use xlink:href="#Q" transform="matrix(1,0,0,1,32749.957617156528,18073.36366209356) translate(21.671666666666674 42.937499999999986)"/><path d="M32958.07 17954.36a6 6 0 0 1 6-6h.25a6 6 0 0 1 6 6v349.1a6 6 0 0 1-6 6h-.25a6 6 0 0 1-6-6z" stroke="#3a414a" stroke-width="3"/><path d="M32827.96 18108.36h108" stroke="#3a414a" stroke-width="3" fill="none"/><path d="M32828 18109.86h-1.63l.1-1.48-.06-1.52h1.6z" stroke="#3a414a" stroke-width=".05" fill="#3a414a"/><path d="M32951.7 18108.36l-14.25 4.64v-9.27z" stroke="#3a414a" stroke-width="3" fill="#3a414a"/><path d="M33121.3 18028.7H32973.32" stroke="#3a414a" stroke-width="3" fill="none"/><path d="M33137.06 18028.7l-14.26 4.63v-9.27z" stroke="#3a414a" stroke-width="3" fill="#3a414a"/><path d="M32973.36 18030.2h-1.54v-3h1.54z" stroke="#3a414a" stroke-width=".05" fill="#3a414a"/><path d="M33122.4 18232.3H32973.3" stroke="#3a414a" stroke-width="3" fill="none"/><path d="M33138.16 18232.3l-14.27 4.63v-9.27z" stroke="#3a414a" stroke-width="3" fill="#3a414a"/><path d="M32973.36 18233.8h-1.54v-3h1.54z" stroke="#3a414a" stroke-width=".05" fill="#3a414a"/><path d="M33657.73 17955.65a6 6 0 0 1 6-6h.25a6 6 0 0 1 6 6v349.1a6 6 0 0 1-6 6h-.25a6 6 0 0 1-6-6z" stroke="#3a414a" stroke-width="3"/><path d="M33472.08 18028.7h163.53" stroke="#3a414a" stroke-width="3" fill="none"/><path d="M33472.12 18030.2h-1.54v-3h1.54z" stroke="#3a414a" stroke-width=".05" fill="#3a414a"/><path d="M33651.38 18028.7l-14.27 4.63v-9.27z" stroke="#3a414a" stroke-width="3" fill="#3a414a"/><path d="M33473.18 18232.3h162.43" stroke="#3a414a" stroke-width="3" fill="none"/><path d="M33473.22 18233.8h-1.54v-3h1.54z" stroke="#3a414a" stroke-width=".05" fill="#3a414a"/><path d="M33651.38 18232.3l-14.27 4.63v-9.27z" stroke="#3a414a" stroke-width="3" fill="#3a414a"/><path d="M33672.98 18130.2H33885.25" stroke="#3a414a" stroke-width="3" fill="none"/><path d="M33673.02 18131.7h-1.54v-3h1.54z" stroke="#3a414a" stroke-width=".05" fill="#3a414a"/><path d="M33901.02 18130.2l-14.26 4.64v-9.27z" stroke="#3a414a" stroke-width="3" fill="#3a414a"/><path d="M34255.1 17249.8a6 6 0 0 1 8.48 0l35.75 35.76a6 6 0 0 1 0 8.48l-35.75 35.75a6 6 0 0 1-8.48 0l-35.75-35.76a6 6 0 0 1 0-8.48z" stroke="#3a414a" stroke-width="2" fill="#fff"/><path d="M33989.17 17095.6h530.8v132.7h-530.8z" fill="none"/><g><use xlink:href="#e" transform="matrix(1,0,0,1,33989.166678971145,17095.600588766545) translate(64.61111111111117 31.99999999999999)"/><use xlink:href="#f" transform="matrix(1,0,0,1,33989.166678971145,17095.600588766545) translate(126.72222222222226 31.99999999999999)"/><use xlink:href="#g" transform="matrix(1,0,0,1,33989.166678971145,17095.600588766545) translate(202.2777777777778 31.99999999999999)"/><use xlink:href="#I" transform="matrix(1,0,0,1,33989.166678971145,17095.600588766545) translate(297.72222222222223 31.99999999999999)"/><use xlink:href="#U" transform="matrix(1,0,0,1,33989.166678971145,17095.600588766545) translate(342.16666666666663 31.99999999999999)"/><use xlink:href="#V" transform="matrix(1,0,0,1,33989.166678971145,17095.600588766545) translate(68.00000000000006 79.99999999999997)"/><use xlink:href="#W" transform="matrix(1,0,0,1,33989.166678971145,17095.600588766545) translate(229.88888888888889 79.99999999999997)"/><use xlink:href="#I" transform="matrix(1,0,0,1,33989.166678971145,17095.600588766545) translate(362.99999999999994 79.99999999999997)"/><use xlink:href="#X" transform="matrix(1,0,0,1,33989.166678971145,17095.600588766545) translate(407.4444444444444 79.99999999999997)"/><use xlink:href="#Y" transform="matrix(1,0,0,1,33989.166678971145,17095.600588766545) translate(170.11111111111114 127.99999999999996)"/></g><path d="M34555.35 17201.34c-19.54 0-35.38 15.84-35.38 35.38v106.16c0 19.55 15.84 35.4 35.38 35.4h255.9c19.54 0 35.4-15.85 35.4-35.4v-106.16c0-19.54-15.86-35.38-35.4-35.38z" stroke="#3a414a" stroke-width="2" fill="#fff"/><g><use xlink:href="#Z" transform="matrix(1,0,0,1,34527.96667897115,17209.335809892087) translate(2.3333333333333997 88.5)"/><use xlink:href="#I" transform="matrix(1,0,0,1,34527.96667897115,17209.335809892087) translate(66.77777777777783 88.5)"/><use xlink:href="#F" transform="matrix(1,0,0,1,34527.96667897115,17209.335809892087) translate(111.22222222222226 88.5)"/></g><path d="M34131.4 17505.57c-19.55 0-35.4 15.84-35.4 35.4v106.15c0 19.54 15.85 35.38 35.4 35.38h255.9c19.53 0 35.38-15.84 35.38-35.38v-106.16c0-19.55-15.85-35.4-35.4-35.4z" stroke="#3a414a" stroke-width="2" fill="#fff"/><g><use xlink:href="#o" transform="matrix(1,0,0,1,34104.00626219013,17513.56914311851) translate(9.166666666666742 88.5)"/><use xlink:href="#aa" transform="matrix(1,0,0,1,34104.00626219013,17513.56914311851) translate(151.05555555555557 88.5)"/></g><path d="M34260.84 17483.95h-3v-45.4h3zm0-85.4h-3v-64.5h3z" stroke="#3a414a" stroke-width=".05" fill="#3a414a"/><path d="M34258.25 17332.47l1.1.08 1.1-.08.4-.1v1.72h-3v-1.73z" fill="#3a414a"/><path d="M34258.25 17332.44l1.1.1 1.08-.1.43-.1v1.78h-3.04v-1.78zm-.4 1.63h2.97v-1.67l-.38.1-1.1.08-1.1-.1-.38-.08z" stroke="#3a414a" stroke-width=".05" fill="#3a414a"/><path d="M34259.34 17499.7l-4.63-14.25h9.28z" fill="#3a414a"/><path d="M34259.34 17504.57l-6.7-20.62h13.4zm-2.57-17.62l2.57 7.9 2.57-7.9z" stroke="#3a414a" stroke-width=".05" fill="#3a414a"/><g><use xlink:href="#t" transform="matrix(1,0,0,1,34230.63671494052,17398.561366767157) translate(0 26.666666666666657)"/></g><path d="M34388.4 17291.3h-84.8v-3h84.8zm109.95 0h-65.7v-3h65.7z" stroke="#3a414a" stroke-width=".05" fill="#3a414a"/><path d="M34303.63 17291.3h-1.72l.1-.4.1-1.1-.1-1.1-.1-.4h1.73z" fill="#3a414a"/><path d="M34303.65 17291.33h-1.77l.1-.44.1-1.1-.1-1.1-.1-.42h1.78zm-1.7-3l.08.37.1 1.1-.1 1.1-.1.38h1.68v-2.95z" stroke="#3a414a" stroke-width=".05" fill="#3a414a"/><path d="M34514.1 17289.8l-14.25 4.64v-9.27z" fill="#3a414a"/><path d="M34518.97 17289.8l-20.62 6.7v-13.4zm-17.62 2.57l7.9-2.57-7.9-2.57z" stroke="#3a414a" stroke-width=".05" fill="#3a414a"/><g><use xlink:href="#w" transform="matrix(1,0,0,1,34388.39947611129,17269.802476558754) translate(0 26.666666666666657)"/></g><path d="M34425.18 17594.04h252.12a6 6 0 0 0 6-6v-188.15" stroke="#3a414a" stroke-width="3" fill="none"/><path d="M34425.2 17595.54h-1.52v-3h1.53z" stroke="#3a414a" stroke-width=".05" fill="#3a414a"/><path d="M34683.3 17384.12l4.64 14.27h-9.27z" stroke="#3a414a" stroke-width="3" fill="#3a414a"/><path d="M34008 17289.8H34195.97" stroke="#3a414a" stroke-width="3" fill="none"/><path d="M34008.03 17291.3h-1.53v-3h1.53z" stroke="#3a414a" stroke-width=".05" fill="#3a414a"/><path d="M34211.73 17289.8l-14.26 4.64v-9.27z" stroke="#3a414a" stroke-width="3" fill="#3a414a"/><path d="M34849.14 17289.8h166.42" stroke="#3a414a" stroke-width="3" fill="none"/><path d="M34849.17 17291.3h-1.53v-3h1.53z" stroke="#3a414a" stroke-width=".05" fill="#3a414a"/><path d="M35031.33 17289.8l-14.27 4.64v-9.27z" stroke="#3a414a" stroke-width="3" fill="#3a414a"/><path d="M36216.75 19100.23c-17.33 0-31.4 14.05-31.4 31.38v94.17c0 17.34 14.07 31.4 31.4 31.4h255.96c17.35 0 31.4-14.06 31.4-31.4v-94.16c0-17.32-14.05-31.37-31.4-31.37z" stroke="#3a414a" stroke-width="2" fill="#fff"/><g><use xlink:href="#ab" transform="matrix(1,0,0,1,36193.365412845225,19108.225597867025) translate(86.11111111111114 31.99999999999999)"/><use xlink:href="#ac" transform="matrix(1,0,0,1,36193.365412845225,19108.225597867025) translate(52.77777777777783 79.99999999999997)"/><use xlink:href="#ad" transform="matrix(1,0,0,1,36193.365412845225,19108.225597867025) translate(42.83333333333337 127.99999999999996)"/></g><path d="M36506.6 19178.7h96.64" stroke="#3a414a" stroke-width="3" fill="none"/><path d="M36506.64 19180.2h-1.54v-3h1.54z" stroke="#3a414a" stroke-width=".05" fill="#3a414a"/><path d="M36619 19178.7l-14.26 4.63v-9.27z" stroke="#3a414a" stroke-width="3" fill="#3a414a"/><path d="M36097.96 19177.32h65.8" stroke="#3a414a" stroke-width="3" fill="none"/><path d="M36098 19178.82h-1.54v-3h1.54z" stroke="#3a414a" stroke-width=".05" fill="#3a414a"/><path d="M36179.5 19177.32l-14.25 4.63v-9.27z" stroke="#3a414a" stroke-width="3" fill="#3a414a"/><defs><path d="M141-36C126-15 110 5 73 4 37 3 15-17 15-53c-1-64 63-63 125-63 3-35-9-54-41-54-24 1-41 7-42 31l-33-3c5-37 33-52 76-52 45 0 72 20 72 64v82c-1 20 7 32 28 27v20c-31 9-61-2-59-35zM48-53c0 20 12 33 32 33 41-3 63-29 60-74-43 2-92-5-92 41" id="ae"/><path d="M85-194c31 0 48 13 60 33l-1-100h32l1 261h-30c-2-10 0-23-3-31C134-8 116 4 85 4 32 4 16-35 15-94c0-66 23-100 70-100zm9 24c-40 0-46 34-46 75 0 40 6 74 45 74 42 0 51-32 51-76 0-42-9-74-50-73" id="af"/><g id="a"><use transform="matrix(0.08703703703703697,0,0,0.08703703703703697,0,0)" xlink:href="#ae"/><use transform="matrix(0.08703703703703697,0,0,0.08703703703703697,17.407407407407394,0)" xlink:href="#af"/></g><path d="M109-170H84l-4-78h32zm-65 0H19l-4-78h33" id="ag"/><path d="M140-251c81 0 123 46 123 126C263-46 219 4 140 4 59 4 17-45 17-125s42-126 123-126zm0 227c63 0 89-41 89-101s-29-99-89-99c-61 0-89 39-89 99S79-25 140-24" id="ah"/><path d="M117-194c89-4 53 116 60 194h-32v-121c0-31-8-49-39-48C34-167 62-67 57 0H25l-1-190h30c1 10-1 24 2 32 11-22 29-35 61-36" id="ai"/><path d="M24 0v-261h32V0H24" id="aj"/><path d="M24-231v-30h32v30H24zM24 0v-190h32V0H24" id="ak"/><path d="M100-194c63 0 86 42 84 106H49c0 40 14 67 53 68 26 1 43-12 49-29l28 8c-11 28-37 45-77 45C44 4 14-33 15-96c1-61 26-98 85-98zm52 81c6-60-76-77-97-28-3 7-6 17-6 28h103" id="al"/><g id="b"><use transform="matrix(0.08703703703703697,0,0,0.08703703703703697,0,0)" xlink:href="#ag"/><use transform="matrix(0.08703703703703697,0,0,0.08703703703703697,11.053703703703695,0)" xlink:href="#ah"/><use transform="matrix(0.08703703703703697,0,0,0.08703703703703697,35.42407407407405,0)" xlink:href="#ai"/><use transform="matrix(0.08703703703703697,0,0,0.08703703703703697,52.83148148148145,0)" xlink:href="#aj"/><use transform="matrix(0.08703703703703697,0,0,0.08703703703703697,59.70740740740737,0)" xlink:href="#ak"/><use transform="matrix(0.08703703703703697,0,0,0.08703703703703697,66.58333333333329,0)" xlink:href="#ai"/><use transform="matrix(0.08703703703703697,0,0,0.08703703703703697,83.99074074074068,0)" xlink:href="#al"/></g><path d="M30 0v-248h187v28H63v79h144v27H63v87h162V0H30" id="am"/><path d="M141 0L90-78 38 0H4l68-98-65-92h35l48 74 47-74h35l-64 92 68 98h-35" id="an"/><path d="M106-169C34-169 62-67 57 0H25v-261h32l-1 103c12-21 28-36 61-36 89 0 53 116 60 194h-32v-121c2-32-8-49-39-48" id="ao"/><path d="M115-194c53 0 69 39 70 98 0 66-23 100-70 100C84 3 66-7 56-30L54 0H23l1-261h32v101c10-23 28-34 59-34zm-8 174c40 0 45-34 45-75 0-40-5-75-45-74-42 0-51 32-51 76 0 43 10 73 51 73" id="ap"/><path d="M59-47c-2 24 18 29 38 22v24C64 9 27 4 27-40v-127H5v-23h24l9-43h21v43h35v23H59v120" id="aq"/><path d="M100-194c62-1 85 37 85 99 1 63-27 99-86 99S16-35 15-95c0-66 28-99 85-99zM99-20c44 1 53-31 53-75 0-43-8-75-51-75s-53 32-53 75 10 74 51 75" id="ar"/><g id="c"><use transform="matrix(0.08703703703703697,0,0,0.08703703703703697,0,0)" xlink:href="#am"/><use transform="matrix(0.08703703703703697,0,0,0.08703703703703697,20.88888888888887,0)" xlink:href="#an"/><use transform="matrix(0.08703703703703697,0,0,0.08703703703703697,36.55555555555553,0)" xlink:href="#ao"/><use transform="matrix(0.08703703703703697,0,0,0.08703703703703697,53.96296296296292,0)" xlink:href="#ak"/><use transform="matrix(0.08703703703703697,0,0,0.08703703703703697,60.83888888888884,0)" xlink:href="#ap"/><use transform="matrix(0.08703703703703697,0,0,0.08703703703703697,78.24629629629624,0)" xlink:href="#ak"/><use transform="matrix(0.08703703703703697,0,0,0.08703703703703697,85.12222222222216,0)" xlink:href="#aq"/><use transform="matrix(0.08703703703703697,0,0,0.08703703703703697,93.82592592592586,0)" xlink:href="#ak"/><use transform="matrix(0.08703703703703697,0,0,0.08703703703703697,100.70185185185179,0)" xlink:href="#ar"/><use transform="matrix(0.08703703703703697,0,0,0.08703703703703697,118.10925925925916,0)" xlink:href="#ai"/></g><path d="M233-177c-1 41-23 64-60 70L243 0h-38l-65-103H63V0H30v-248c88 3 205-21 203 71zM63-129c60-2 137 13 137-47 0-61-80-42-137-45v92" id="as"/><path d="M135-143c-3-34-86-38-87 0 15 53 115 12 119 90S17 21 10-45l28-5c4 36 97 45 98 0-10-56-113-15-118-90-4-57 82-63 122-42 12 7 21 19 24 35" id="at"/><path d="M114-163C36-179 61-72 57 0H25l-1-190h30c1 12-1 29 2 39 6-27 23-49 58-41v29" id="au"/><path d="M108 0H70L1-190h34L89-25l56-165h34" id="av"/><g id="d"><use transform="matrix(0.08703703703703697,0,0,0.08703703703703697,0,0)" xlink:href="#as"/><use transform="matrix(0.08703703703703697,0,0,0.08703703703703697,22.542592592592573,0)" xlink:href="#al"/><use transform="matrix(0.08703703703703697,0,0,0.08703703703703697,39.94999999999997,0)" xlink:href="#at"/><use transform="matrix(0.08703703703703697,0,0,0.08703703703703697,55.61666666666661,0)" xlink:href="#al"/><use transform="matrix(0.08703703703703697,0,0,0.08703703703703697,73.02407407407401,0)" xlink:href="#au"/><use transform="matrix(0.08703703703703697,0,0,0.08703703703703697,83.3814814814814,0)" xlink:href="#av"/><use transform="matrix(0.08703703703703697,0,0,0.08703703703703697,99.04814814814804,0)" xlink:href="#ae"/><use transform="matrix(0.08703703703703697,0,0,0.08703703703703697,116.45555555555545,0)" xlink:href="#aq"/><use transform="matrix(0.08703703703703697,0,0,0.08703703703703697,125.15925925925914,0)" xlink:href="#ak"/><use transform="matrix(0.08703703703703697,0,0,0.08703703703703697,132.03518518518507,0)" xlink:href="#ar"/><use transform="matrix(0.08703703703703697,0,0,0.08703703703703697,149.44259259259246,0)" xlink:href="#ai"/><use transform="matrix(0.08703703703703697,0,0,0.08703703703703697,166.84999999999985,0)" xlink:href="#ag"/></g><path fill="#3a414a" d="M30-248c118-7 216 8 213 122C240-48 200 0 122 0H30v-248zM63-27c89 8 146-16 146-99s-60-101-146-95v194" id="aw"/><path fill="#3a414a" d="M100-194c62-1 85 37 85 99 1 63-27 99-86 99S16-35 15-95c0-66 28-99 85-99zM99-20c44 1 53-31 53-75 0-43-8-75-51-75s-53 32-53 75 10 74 51 75" id="ax"/><g id="e"><use transform="matrix(0.11111111111111108,0,0,0.11111111111111108,0,0)" xlink:href="#aw"/><use transform="matrix(0.11111111111111108,0,0,0.11111111111111108,28.777777777777768,0)" xlink:href="#ax"/></g><path fill="#3a414a" d="M179-190L93 31C79 59 56 82 12 73V49c39 6 53-20 64-50L1-190h34L92-34l54-156h33" id="ay"/><path fill="#3a414a" d="M84 4C-5 8 30-112 23-190h32v120c0 31 7 50 39 49 72-2 45-101 50-169h31l1 190h-30c-1-10 1-25-2-33-11 22-28 36-60 37" id="az"/><g id="f"><use transform="matrix(0.11111111111111108,0,0,0.11111111111111108,0,0)" xlink:href="#ay"/><use transform="matrix(0.11111111111111108,0,0,0.11111111111111108,19.999999999999993,0)" xlink:href="#ax"/><use transform="matrix(0.11111111111111108,0,0,0.11111111111111108,42.22222222222221,0)" xlink:href="#az"/></g><path fill="#3a414a" d="M206 0h-36l-40-164L89 0H53L-1-190h32L70-26l43-164h34l41 164 42-164h31" id="aA"/><path fill="#3a414a" d="M141-36C126-15 110 5 73 4 37 3 15-17 15-53c-1-64 63-63 125-63 3-35-9-54-41-54-24 1-41 7-42 31l-33-3c5-37 33-52 76-52 45 0 72 20 72 64v82c-1 20 7 32 28 27v20c-31 9-61-2-59-35zM48-53c0 20 12 33 32 33 41-3 63-29 60-74-43 2-92-5-92 41" id="aB"/><path fill="#3a414a" d="M117-194c89-4 53 116 60 194h-32v-121c0-31-8-49-39-48C34-167 62-67 57 0H25l-1-190h30c1 10-1 24 2 32 11-22 29-35 61-36" id="aC"/><path fill="#3a414a" d="M59-47c-2 24 18 29 38 22v24C64 9 27 4 27-40v-127H5v-23h24l9-43h21v43h35v23H59v120" id="aD"/><g id="g"><use transform="matrix(0.11111111111111108,0,0,0.11111111111111108,0,0)" xlink:href="#aA"/><use transform="matrix(0.11111111111111108,0,0,0.11111111111111108,28.777777777777768,0)" xlink:href="#aB"/><use transform="matrix(0.11111111111111108,0,0,0.11111111111111108,50.999999999999986,0)" xlink:href="#aC"/><use transform="matrix(0.11111111111111108,0,0,0.11111111111111108,73.2222222222222,0)" xlink:href="#aD"/></g><g id="h"><use transform="matrix(0.11111111111111108,0,0,0.11111111111111108,0,0)" xlink:href="#aD"/><use transform="matrix(0.11111111111111108,0,0,0.11111111111111108,11.111111111111107,0)" xlink:href="#ax"/></g><path fill="#3a414a" d="M96-169c-40 0-48 33-48 73s9 75 48 75c24 0 41-14 43-38l32 2c-6 37-31 61-74 61-59 0-76-41-82-99-10-93 101-131 147-64 4 7 5 14 7 22l-32 3c-4-21-16-35-41-35" id="aE"/><path fill="#3a414a" d="M106-169C34-169 62-67 57 0H25v-261h32l-1 103c12-21 28-36 61-36 89 0 53 116 60 194h-32v-121c2-32-8-49-39-48" id="aF"/><path fill="#3a414a" d="M135-143c-3-34-86-38-87 0 15 53 115 12 119 90S17 21 10-45l28-5c4 36 97 45 98 0-10-56-113-15-118-90-4-57 82-63 122-42 12 7 21 19 24 35" id="aG"/><path fill="#3a414a" d="M100-194c63 0 86 42 84 106H49c0 40 14 67 53 68 26 1 43-12 49-29l28 8c-11 28-37 45-77 45C44 4 14-33 15-96c1-61 26-98 85-98zm52 81c6-60-76-77-97-28-3 7-6 17-6 28h103" id="aH"/><g id="i"><use transform="matrix(0.11111111111111108,0,0,0.11111111111111108,0,0)" xlink:href="#aE"/><use transform="matrix(0.11111111111111108,0,0,0.11111111111111108,19.999999999999993,0)" xlink:href="#aF"/><use transform="matrix(0.11111111111111108,0,0,0.11111111111111108,42.22222222222221,0)" xlink:href="#ax"/><use transform="matrix(0.11111111111111108,0,0,0.11111111111111108,64.44444444444443,0)" xlink:href="#ax"/><use transform="matrix(0.11111111111111108,0,0,0.11111111111111108,86.66666666666664,0)" xlink:href="#aG"/><use transform="matrix(0.11111111111111108,0,0,0.11111111111111108,106.66666666666663,0)" xlink:href="#aH"/></g><path fill="#3a414a" d="M85-194c31 0 48 13 60 33l-1-100h32l1 261h-30c-2-10 0-23-3-31C134-8 116 4 85 4 32 4 16-35 15-94c0-66 23-100 70-100zm9 24c-40 0-46 34-46 75 0 40 6 74 45 74 42 0 51-32 51-76 0-42-9-74-50-73" id="aI"/><path fill="#3a414a" d="M24-231v-30h32v30H24zM24 0v-190h32V0H24" id="aJ"/><g id="j"><use transform="matrix(0.11111111111111108,0,0,0.11111111111111108,0,0)" xlink:href="#aB"/><use transform="matrix(0.11111111111111108,0,0,0.11111111111111108,22.222222222222214,0)" xlink:href="#az"/><use transform="matrix(0.11111111111111108,0,0,0.11111111111111108,44.44444444444443,0)" xlink:href="#aI"/><use transform="matrix(0.11111111111111108,0,0,0.11111111111111108,66.66666666666664,0)" xlink:href="#aJ"/><use transform="matrix(0.11111111111111108,0,0,0.11111111111111108,75.44444444444441,0)" xlink:href="#ax"/></g><path fill="#3a414a" d="M177-190C167-65 218 103 67 71c-23-6-38-20-44-43l32-5c15 47 100 32 89-28v-30C133-14 115 1 83 1 29 1 15-40 15-95c0-56 16-97 71-98 29-1 48 16 59 35 1-10 0-23 2-32h30zM94-22c36 0 50-32 50-73 0-42-14-75-50-75-39 0-46 34-46 75s6 73 46 73" id="aK"/><path fill="#3a414a" d="M103-251c84 0 111 97 45 133-19 10-37 24-39 52H78c0-63 77-55 77-114 0-30-21-42-52-43-32 0-53 17-56 46l-32-2c7-45 34-72 88-72zM77 0v-35h34V0H77" id="aL"/><g id="k"><use transform="matrix(0.11111111111111108,0,0,0.11111111111111108,0,0)" xlink:href="#aK"/><use transform="matrix(0.11111111111111108,0,0,0.11111111111111108,22.222222222222214,0)" xlink:href="#az"/><use transform="matrix(0.11111111111111108,0,0,0.11111111111111108,44.44444444444443,0)" xlink:href="#aJ"/><use transform="matrix(0.11111111111111108,0,0,0.11111111111111108,53.2222222222222,0)" xlink:href="#aI"/><use transform="matrix(0.11111111111111108,0,0,0.11111111111111108,75.44444444444441,0)" xlink:href="#aH"/><use transform="matrix(0.11111111111111108,0,0,0.11111111111111108,97.66666666666663,0)" xlink:href="#aL"/></g><path fill="#3a414a" d="M33 0v-248h34V0H33" id="aM"/><g id="l"><use transform="matrix(0.11111111111111108,0,0,0.11111111111111108,0,0)" xlink:href="#aM"/><use transform="matrix(0.11111111111111108,0,0,0.11111111111111108,11.111111111111107,0)" xlink:href="#aG"/></g><path fill="#3a414a" d="M114-163C36-179 61-72 57 0H25l-1-190h30c1 12-1 29 2 39 6-27 23-49 58-41v29" id="aN"/><path fill="#3a414a" d="M108 0H70L1-190h34L89-25l56-165h34" id="aO"/><g id="m"><use transform="matrix(0.11111111111111108,0,0,0.11111111111111108,0,0)" xlink:href="#aN"/><use transform="matrix(0.11111111111111108,0,0,0.11111111111111108,13.222222222222218,0)" xlink:href="#aH"/><use transform="matrix(0.11111111111111108,0,0,0.11111111111111108,35.44444444444443,0)" xlink:href="#aG"/><use transform="matrix(0.11111111111111108,0,0,0.11111111111111108,55.44444444444442,0)" xlink:href="#aH"/><use transform="matrix(0.11111111111111108,0,0,0.11111111111111108,77.66666666666663,0)" xlink:href="#aN"/><use transform="matrix(0.11111111111111108,0,0,0.11111111111111108,90.88888888888884,0)" xlink:href="#aO"/><use transform="matrix(0.11111111111111108,0,0,0.11111111111111108,110.88888888888883,0)" xlink:href="#aB"/><use transform="matrix(0.11111111111111108,0,0,0.11111111111111108,133.11111111111103,0)" xlink:href="#aD"/><use transform="matrix(0.11111111111111108,0,0,0.11111111111111108,144.22222222222214,0)" xlink:href="#aJ"/><use transform="matrix(0.11111111111111108,0,0,0.11111111111111108,152.99999999999991,0)" xlink:href="#ax"/><use transform="matrix(0.11111111111111108,0,0,0.11111111111111108,175.22222222222211,0)" xlink:href="#aC"/></g><path fill="#3a414a" d="M24 0v-261h32V0H24" id="aP"/><path fill="#3a414a" d="M115-194c53 0 69 39 70 98 0 66-23 100-70 100C84 3 66-7 56-30L54 0H23l1-261h32v101c10-23 28-34 59-34zm-8 174c40 0 45-34 45-75 0-40-5-75-45-74-42 0-51 32-51 76 0 43 10 73 51 73" id="aQ"/><g id="n"><use transform="matrix(0.11111111111111108,0,0,0.11111111111111108,0,0)" xlink:href="#aB"/><use transform="matrix(0.11111111111111108,0,0,0.11111111111111108,22.222222222222214,0)" xlink:href="#aO"/><use transform="matrix(0.11111111111111108,0,0,0.11111111111111108,42.22222222222221,0)" xlink:href="#aB"/><use transform="matrix(0.11111111111111108,0,0,0.11111111111111108,64.44444444444443,0)" xlink:href="#aJ"/><use transform="matrix(0.11111111111111108,0,0,0.11111111111111108,73.2222222222222,0)" xlink:href="#aP"/><use transform="matrix(0.11111111111111108,0,0,0.11111111111111108,81.99999999999997,0)" xlink:href="#aB"/><use transform="matrix(0.11111111111111108,0,0,0.11111111111111108,104.22222222222219,0)" xlink:href="#aQ"/><use transform="matrix(0.11111111111111108,0,0,0.11111111111111108,126.4444444444444,0)" xlink:href="#aP"/><use transform="matrix(0.11111111111111108,0,0,0.11111111111111108,135.22222222222217,0)" xlink:href="#aH"/><use transform="matrix(0.11111111111111108,0,0,0.11111111111111108,157.4444444444444,0)" xlink:href="#aL"/></g><path fill="#3a414a" d="M115-194c55 1 70 41 70 98S169 2 115 4C84 4 66-9 55-30l1 105H24l-1-265h31l2 30c10-21 28-34 59-34zm-8 174c40 0 45-34 45-75s-6-73-45-74c-42 0-51 32-51 76 0 43 10 73 51 73" id="aR"/><g id="o"><use transform="matrix(0.11111111111111108,0,0,0.11111111111111108,0,0)" xlink:href="#aw"/><use transform="matrix(0.11111111111111108,0,0,0.11111111111111108,28.777777777777768,0)" xlink:href="#aJ"/><use transform="matrix(0.11111111111111108,0,0,0.11111111111111108,37.55555555555554,0)" xlink:href="#aG"/><use transform="matrix(0.11111111111111108,0,0,0.11111111111111108,57.555555555555536,0)" xlink:href="#aR"/><use transform="matrix(0.11111111111111108,0,0,0.11111111111111108,79.77777777777774,0)" xlink:href="#aP"/><use transform="matrix(0.11111111111111108,0,0,0.11111111111111108,88.55555555555551,0)" xlink:href="#aB"/><use transform="matrix(0.11111111111111108,0,0,0.11111111111111108,110.77777777777773,0)" xlink:href="#ay"/></g><g id="p"><use transform="matrix(0.11111111111111108,0,0,0.11111111111111108,0,0)" xlink:href="#aB"/><use transform="matrix(0.11111111111111108,0,0,0.11111111111111108,22.222222222222214,0)" xlink:href="#aO"/><use transform="matrix(0.11111111111111108,0,0,0.11111111111111108,42.22222222222221,0)" xlink:href="#aB"/><use transform="matrix(0.11111111111111108,0,0,0.11111111111111108,64.44444444444443,0)" xlink:href="#aJ"/><use transform="matrix(0.11111111111111108,0,0,0.11111111111111108,73.2222222222222,0)" xlink:href="#aP"/><use transform="matrix(0.11111111111111108,0,0,0.11111111111111108,81.99999999999997,0)" xlink:href="#aB"/><use transform="matrix(0.11111111111111108,0,0,0.11111111111111108,104.22222222222219,0)" xlink:href="#aQ"/><use transform="matrix(0.11111111111111108,0,0,0.11111111111111108,126.4444444444444,0)" xlink:href="#aP"/><use transform="matrix(0.11111111111111108,0,0,0.11111111111111108,135.22222222222217,0)" xlink:href="#aH"/></g><path fill="#3a414a" d="M141 0L90-78 38 0H4l68-98-65-92h35l48 74 47-74h35l-64 92 68 98h-35" id="aS"/><g id="q"><use transform="matrix(0.11111111111111108,0,0,0.11111111111111108,0,0)" xlink:href="#aH"/><use transform="matrix(0.11111111111111108,0,0,0.11111111111111108,22.222222222222214,0)" xlink:href="#aS"/><use transform="matrix(0.11111111111111108,0,0,0.11111111111111108,42.22222222222221,0)" xlink:href="#aF"/><use transform="matrix(0.11111111111111108,0,0,0.11111111111111108,64.44444444444443,0)" xlink:href="#aJ"/><use transform="matrix(0.11111111111111108,0,0,0.11111111111111108,73.2222222222222,0)" xlink:href="#aQ"/><use transform="matrix(0.11111111111111108,0,0,0.11111111111111108,95.44444444444441,0)" xlink:href="#aJ"/><use transform="matrix(0.11111111111111108,0,0,0.11111111111111108,104.22222222222219,0)" xlink:href="#aD"/><use transform="matrix(0.11111111111111108,0,0,0.11111111111111108,115.3333333333333,0)" xlink:href="#aJ"/><use transform="matrix(0.11111111111111108,0,0,0.11111111111111108,124.11111111111104,0)" xlink:href="#ax"/><use transform="matrix(0.11111111111111108,0,0,0.11111111111111108,146.33333333333326,0)" xlink:href="#aC"/><use transform="matrix(0.11111111111111108,0,0,0.11111111111111108,168.5555555555555,0)" xlink:href="#aG"/></g><path fill="#3a414a" d="M212-179c-10-28-35-45-73-45-59 0-87 40-87 99 0 60 29 101 89 101 43 0 62-24 78-52l27 14C228-24 195 4 139 4 59 4 22-46 18-125c-6-104 99-153 187-111 19 9 31 26 39 46" id="aT"/><g id="r"><use transform="matrix(0.11111111111111108,0,0,0.11111111111111108,0,0)" xlink:href="#aT"/><use transform="matrix(0.11111111111111108,0,0,0.11111111111111108,28.777777777777768,0)" xlink:href="#aF"/><use transform="matrix(0.11111111111111108,0,0,0.11111111111111108,50.999999999999986,0)" xlink:href="#ax"/><use transform="matrix(0.11111111111111108,0,0,0.11111111111111108,73.2222222222222,0)" xlink:href="#ax"/><use transform="matrix(0.11111111111111108,0,0,0.11111111111111108,95.44444444444441,0)" xlink:href="#aG"/><use transform="matrix(0.11111111111111108,0,0,0.11111111111111108,115.44444444444441,0)" xlink:href="#aH"/></g><g id="s"><use transform="matrix(0.11111111111111108,0,0,0.11111111111111108,0,0)" xlink:href="#aH"/><use transform="matrix(0.11111111111111108,0,0,0.11111111111111108,22.222222222222214,0)" xlink:href="#aS"/><use transform="matrix(0.11111111111111108,0,0,0.11111111111111108,42.22222222222221,0)" xlink:href="#aF"/><use transform="matrix(0.11111111111111108,0,0,0.11111111111111108,64.44444444444443,0)" xlink:href="#aJ"/><use transform="matrix(0.11111111111111108,0,0,0.11111111111111108,73.2222222222222,0)" xlink:href="#aQ"/><use transform="matrix(0.11111111111111108,0,0,0.11111111111111108,95.44444444444441,0)" xlink:href="#aJ"/><use transform="matrix(0.11111111111111108,0,0,0.11111111111111108,104.22222222222219,0)" xlink:href="#aD"/><use transform="matrix(0.11111111111111108,0,0,0.11111111111111108,115.3333333333333,0)" xlink:href="#aJ"/><use transform="matrix(0.11111111111111108,0,0,0.11111111111111108,124.11111111111104,0)" xlink:href="#ax"/><use transform="matrix(0.11111111111111108,0,0,0.11111111111111108,146.33333333333326,0)" xlink:href="#aC"/></g><path fill="#333" d="M146-102V0H94v-102L6-248h54l60 105 60-105h54" id="aU"/><path fill="#333" d="M185-48c-13 30-37 53-82 52C43 2 14-33 14-96s30-98 90-98c62 0 83 45 84 108H66c0 31 8 55 39 56 18 0 30-7 34-22zm-45-69c5-46-57-63-70-21-2 6-4 13-4 21h74" id="aV"/><path fill="#333" d="M137-138c1-29-70-34-71-4 15 46 118 7 119 86 1 83-164 76-172 9l43-7c4 19 20 25 44 25 33 8 57-30 24-41C81-84 22-81 20-136c-2-80 154-74 161-7" id="aW"/><g id="t"><use transform="matrix(0.09259259259259256,0,0,0.09259259259259256,0,0)" xlink:href="#aU"/><use transform="matrix(0.09259259259259256,0,0,0.09259259259259256,20.370370370370363,0)" xlink:href="#aV"/><use transform="matrix(0.09259259259259256,0,0,0.09259259259259256,38.88888888888887,0)" xlink:href="#aW"/></g><g id="u"><use transform="matrix(0.11111111111111108,0,0,0.11111111111111108,0,0)" xlink:href="#aT"/><use transform="matrix(0.11111111111111108,0,0,0.11111111111111108,28.777777777777768,0)" xlink:href="#aF"/><use transform="matrix(0.11111111111111108,0,0,0.11111111111111108,50.999999999999986,0)" xlink:href="#ax"/><use transform="matrix(0.11111111111111108,0,0,0.11111111111111108,73.2222222222222,0)" xlink:href="#ax"/><use transform="matrix(0.11111111111111108,0,0,0.11111111111111108,95.44444444444441,0)" xlink:href="#aG"/><use transform="matrix(0.11111111111111108,0,0,0.11111111111111108,115.44444444444441,0)" xlink:href="#aH"/></g><g id="v"><use transform="matrix(0.11111111111111108,0,0,0.11111111111111108,0,0)" xlink:href="#aP"/><use transform="matrix(0.11111111111111108,0,0,0.11111111111111108,8.777777777777775,0)" xlink:href="#aB"/><use transform="matrix(0.11111111111111108,0,0,0.11111111111111108,30.99999999999999,0)" xlink:href="#aC"/><use transform="matrix(0.11111111111111108,0,0,0.11111111111111108,53.2222222222222,0)" xlink:href="#aK"/><use transform="matrix(0.11111111111111108,0,0,0.11111111111111108,75.44444444444441,0)" xlink:href="#az"/><use transform="matrix(0.11111111111111108,0,0,0.11111111111111108,97.66666666666663,0)" xlink:href="#aB"/><use transform="matrix(0.11111111111111108,0,0,0.11111111111111108,119.88888888888886,0)" xlink:href="#aK"/><use transform="matrix(0.11111111111111108,0,0,0.11111111111111108,142.11111111111106,0)" xlink:href="#aH"/></g><path fill="#333" d="M175 0L67-191c6 58 2 128 3 191H24v-248h59L193-55c-6-58-2-129-3-193h46V0h-61" id="aX"/><path fill="#333" d="M110-194c64 0 96 36 96 99 0 64-35 99-97 99-61 0-95-36-95-99 0-62 34-99 96-99zm-1 164c35 0 45-28 45-65 0-40-10-65-43-65-34 0-45 26-45 65 0 36 10 65 43 65" id="aY"/><g id="w"><use transform="matrix(0.09259259259259256,0,0,0.09259259259259256,0,0)" xlink:href="#aX"/><use transform="matrix(0.09259259259259256,0,0,0.09259259259259256,23.981481481481474,0)" xlink:href="#aY"/></g><g id="x"><use transform="matrix(0.11111111111111108,0,0,0.11111111111111108,0,0)" xlink:href="#aF"/><use transform="matrix(0.11111111111111108,0,0,0.11111111111111108,22.222222222222214,0)" xlink:href="#aB"/><use transform="matrix(0.11111111111111108,0,0,0.11111111111111108,44.44444444444443,0)" xlink:href="#aO"/><use transform="matrix(0.11111111111111108,0,0,0.11111111111111108,64.44444444444443,0)" xlink:href="#aH"/></g><g id="y"><use transform="matrix(0.11111111111111108,0,0,0.11111111111111108,0,0)" xlink:href="#aB"/><use transform="matrix(0.11111111111111108,0,0,0.11111111111111108,22.222222222222214,0)" xlink:href="#aC"/></g><g id="z"><use transform="matrix(0.11111111111111108,0,0,0.11111111111111108,0,0)" xlink:href="#aB"/><use transform="matrix(0.11111111111111108,0,0,0.11111111111111108,22.222222222222214,0)" xlink:href="#aE"/><use transform="matrix(0.11111111111111108,0,0,0.11111111111111108,42.22222222222221,0)" xlink:href="#aE"/><use transform="matrix(0.11111111111111108,0,0,0.11111111111111108,62.2222222222222,0)" xlink:href="#ax"/><use transform="matrix(0.11111111111111108,0,0,0.11111111111111108,84.44444444444441,0)" xlink:href="#az"/><use transform="matrix(0.11111111111111108,0,0,0.11111111111111108,106.66666666666663,0)" xlink:href="#aC"/><use transform="matrix(0.11111111111111108,0,0,0.11111111111111108,128.88888888888886,0)" xlink:href="#aD"/><use transform="matrix(0.11111111111111108,0,0,0.11111111111111108,139.99999999999997,0)" xlink:href="#aL"/></g><g id="A"><use transform="matrix(0.11111111111111108,0,0,0.11111111111111108,0,0)" xlink:href="#aI"/><use transform="matrix(0.11111111111111108,0,0,0.11111111111111108,22.222222222222214,0)" xlink:href="#aB"/><use transform="matrix(0.11111111111111108,0,0,0.11111111111111108,44.44444444444443,0)" xlink:href="#aD"/><use transform="matrix(0.11111111111111108,0,0,0.11111111111111108,55.555555555555536,0)" xlink:href="#aH"/></g><path fill="#3a414a" d="M185-189c-5-48-123-54-124 2 14 75 158 14 163 119 3 78-121 87-175 55-17-10-28-26-33-46l33-7c5 56 141 63 141-1 0-78-155-14-162-118-5-82 145-84 179-34 5 7 8 16 11 25" id="aZ"/><g id="B"><use transform="matrix(0.11111111111111108,0,0,0.11111111111111108,0,0)" xlink:href="#aZ"/><use transform="matrix(0.11111111111111108,0,0,0.11111111111111108,26.666666666666657,0)" xlink:href="#aF"/><use transform="matrix(0.11111111111111108,0,0,0.11111111111111108,48.88888888888887,0)" xlink:href="#ax"/><use transform="matrix(0.11111111111111108,0,0,0.11111111111111108,71.11111111111109,0)" xlink:href="#aA"/></g><g id="C"><use transform="matrix(0.11111111111111108,0,0,0.11111111111111108,0,0)" xlink:href="#aC"/><use transform="matrix(0.11111111111111108,0,0,0.11111111111111108,22.222222222222214,0)" xlink:href="#ax"/><use transform="matrix(0.11111111111111108,0,0,0.11111111111111108,44.44444444444443,0)" xlink:href="#aD"/></g><path fill="#3a414a" d="M210-169c-67 3-38 105-44 169h-31v-121c0-29-5-50-35-48C34-165 62-65 56 0H25l-1-190h30c1 10-1 24 2 32 10-44 99-50 107 0 11-21 27-35 58-36 85-2 47 119 55 194h-31v-121c0-29-5-49-35-48" id="ba"/><g id="D"><use transform="matrix(0.11111111111111108,0,0,0.11111111111111108,0,0)" xlink:href="#ba"/><use transform="matrix(0.11111111111111108,0,0,0.11111111111111108,33.222222222222214,0)" xlink:href="#aH"/><use transform="matrix(0.11111111111111108,0,0,0.11111111111111108,55.44444444444443,0)" xlink:href="#aG"/><use transform="matrix(0.11111111111111108,0,0,0.11111111111111108,75.44444444444443,0)" xlink:href="#aG"/><use transform="matrix(0.11111111111111108,0,0,0.11111111111111108,95.44444444444443,0)" xlink:href="#aB"/><use transform="matrix(0.11111111111111108,0,0,0.11111111111111108,117.66666666666663,0)" xlink:href="#aK"/><use transform="matrix(0.11111111111111108,0,0,0.11111111111111108,139.88888888888886,0)" xlink:href="#aH"/></g><path fill="#3a414a" d="M101-234c-31-9-42 10-38 44h38v23H63V0H32v-167H5v-23h27c-7-52 17-82 69-68v24" id="bb"/><g id="E"><use transform="matrix(0.11111111111111108,0,0,0.11111111111111108,0,0)" xlink:href="#aT"/><use transform="matrix(0.11111111111111108,0,0,0.11111111111111108,28.777777777777768,0)" xlink:href="#ax"/><use transform="matrix(0.11111111111111108,0,0,0.11111111111111108,50.999999999999986,0)" xlink:href="#aC"/><use transform="matrix(0.11111111111111108,0,0,0.11111111111111108,73.2222222222222,0)" xlink:href="#bb"/><use transform="matrix(0.11111111111111108,0,0,0.11111111111111108,84.33333333333331,0)" xlink:href="#aJ"/><use transform="matrix(0.11111111111111108,0,0,0.11111111111111108,93.11111111111109,0)" xlink:href="#aN"/><use transform="matrix(0.11111111111111108,0,0,0.11111111111111108,106.3333333333333,0)" xlink:href="#ba"/></g><g id="F"><use transform="matrix(0.11111111111111108,0,0,0.11111111111111108,0,0)" xlink:href="#aN"/><use transform="matrix(0.11111111111111108,0,0,0.11111111111111108,13.222222222222218,0)" xlink:href="#aH"/><use transform="matrix(0.11111111111111108,0,0,0.11111111111111108,35.44444444444443,0)" xlink:href="#aG"/><use transform="matrix(0.11111111111111108,0,0,0.11111111111111108,55.44444444444442,0)" xlink:href="#aH"/><use transform="matrix(0.11111111111111108,0,0,0.11111111111111108,77.66666666666663,0)" xlink:href="#aN"/><use transform="matrix(0.11111111111111108,0,0,0.11111111111111108,90.88888888888884,0)" xlink:href="#aO"/><use transform="matrix(0.11111111111111108,0,0,0.11111111111111108,110.88888888888883,0)" xlink:href="#aB"/><use transform="matrix(0.11111111111111108,0,0,0.11111111111111108,133.11111111111103,0)" xlink:href="#aD"/><use transform="matrix(0.11111111111111108,0,0,0.11111111111111108,144.22222222222214,0)" xlink:href="#aJ"/><use transform="matrix(0.11111111111111108,0,0,0.11111111111111108,152.99999999999991,0)" xlink:href="#ax"/><use transform="matrix(0.11111111111111108,0,0,0.11111111111111108,175.22222222222211,0)" xlink:href="#aC"/></g><path fill="#3a414a" d="M30 0v-248h33v221h125V0H30" id="bc"/><g id="G"><use transform="matrix(0.11111111111111108,0,0,0.11111111111111108,0,0)" xlink:href="#bc"/><use transform="matrix(0.11111111111111108,0,0,0.11111111111111108,22.222222222222214,0)" xlink:href="#ax"/><use transform="matrix(0.11111111111111108,0,0,0.11111111111111108,44.44444444444443,0)" xlink:href="#aK"/></g><g id="H"><use transform="matrix(0.11111111111111108,0,0,0.11111111111111108,0,0)" xlink:href="#aJ"/><use transform="matrix(0.11111111111111108,0,0,0.11111111111111108,8.777777777777775,0)" xlink:href="#aC"/></g><g id="I"><use transform="matrix(0.11111111111111108,0,0,0.11111111111111108,0,0)" xlink:href="#aD"/><use transform="matrix(0.11111111111111108,0,0,0.11111111111111108,11.111111111111107,0)" xlink:href="#ax"/></g><g id="J"><use transform="matrix(0.11111111111111108,0,0,0.11111111111111108,0,0)" xlink:href="#aE"/><use transform="matrix(0.11111111111111108,0,0,0.11111111111111108,19.999999999999993,0)" xlink:href="#aN"/><use transform="matrix(0.11111111111111108,0,0,0.11111111111111108,33.222222222222214,0)" xlink:href="#aH"/><use transform="matrix(0.11111111111111108,0,0,0.11111111111111108,55.44444444444443,0)" xlink:href="#aB"/><use transform="matrix(0.11111111111111108,0,0,0.11111111111111108,77.66666666666664,0)" xlink:href="#aD"/><use transform="matrix(0.11111111111111108,0,0,0.11111111111111108,88.77777777777774,0)" xlink:href="#aH"/></g><g id="K"><use transform="matrix(0.11111111111111108,0,0,0.11111111111111108,0,0)" xlink:href="#ax"/><use transform="matrix(0.11111111111111108,0,0,0.11111111111111108,22.222222222222214,0)" xlink:href="#aC"/><use transform="matrix(0.11111111111111108,0,0,0.11111111111111108,44.44444444444443,0)" xlink:href="#aH"/><use transform="matrix(0.11111111111111108,0,0,0.11111111111111108,66.66666666666664,0)" xlink:href="#aL"/></g><g id="L"><use transform="matrix(0.11111111111111108,0,0,0.11111111111111108,0,0)" xlink:href="#aT"/><use transform="matrix(0.11111111111111108,0,0,0.11111111111111108,28.777777777777768,0)" xlink:href="#aN"/><use transform="matrix(0.11111111111111108,0,0,0.11111111111111108,41.999999999999986,0)" xlink:href="#aH"/><use transform="matrix(0.11111111111111108,0,0,0.11111111111111108,64.2222222222222,0)" xlink:href="#aB"/><use transform="matrix(0.11111111111111108,0,0,0.11111111111111108,86.44444444444441,0)" xlink:href="#aD"/><use transform="matrix(0.11111111111111108,0,0,0.11111111111111108,97.55555555555551,0)" xlink:href="#aH"/></g><g id="M"><use transform="matrix(0.11111111111111108,0,0,0.11111111111111108,0,0)" xlink:href="#aB"/><use transform="matrix(0.11111111111111108,0,0,0.11111111111111108,22.222222222222214,0)" xlink:href="#aC"/></g><g id="N"><use transform="matrix(0.11111111111111108,0,0,0.11111111111111108,0,0)" xlink:href="#aB"/><use transform="matrix(0.11111111111111108,0,0,0.11111111111111108,22.222222222222214,0)" xlink:href="#aE"/><use transform="matrix(0.11111111111111108,0,0,0.11111111111111108,42.22222222222221,0)" xlink:href="#aE"/><use transform="matrix(0.11111111111111108,0,0,0.11111111111111108,62.2222222222222,0)" xlink:href="#ax"/><use transform="matrix(0.11111111111111108,0,0,0.11111111111111108,84.44444444444441,0)" xlink:href="#az"/><use transform="matrix(0.11111111111111108,0,0,0.11111111111111108,106.66666666666663,0)" xlink:href="#aC"/><use transform="matrix(0.11111111111111108,0,0,0.11111111111111108,128.88888888888886,0)" xlink:href="#aD"/></g><path fill="#3a414a" d="M30 0v-248h187v28H63v79h144v27H63v87h162V0H30" id="bd"/><path fill="#3a414a" d="M0 4l72-265h28L28 4H0" id="be"/><g id="O"><use transform="matrix(0.11111111111111108,0,0,0.11111111111111108,0,0)" xlink:href="#bd"/><use transform="matrix(0.11111111111111108,0,0,0.11111111111111108,26.666666666666657,0)" xlink:href="#aC"/><use transform="matrix(0.11111111111111108,0,0,0.11111111111111108,48.88888888888887,0)" xlink:href="#aD"/><use transform="matrix(0.11111111111111108,0,0,0.11111111111111108,59.99999999999998,0)" xlink:href="#aH"/><use transform="matrix(0.11111111111111108,0,0,0.11111111111111108,82.2222222222222,0)" xlink:href="#aN"/><use transform="matrix(0.11111111111111108,0,0,0.11111111111111108,95.44444444444441,0)" xlink:href="#be"/><use transform="matrix(0.11111111111111108,0,0,0.11111111111111108,106.55555555555551,0)" xlink:href="#bd"/><use transform="matrix(0.11111111111111108,0,0,0.11111111111111108,133.22222222222217,0)" xlink:href="#aI"/><use transform="matrix(0.11111111111111108,0,0,0.11111111111111108,155.4444444444444,0)" xlink:href="#aJ"/><use transform="matrix(0.11111111111111108,0,0,0.11111111111111108,164.22222222222217,0)" xlink:href="#aD"/></g><g id="P"><use transform="matrix(0.11111111111111108,0,0,0.11111111111111108,0,0)" xlink:href="#aI"/><use transform="matrix(0.11111111111111108,0,0,0.11111111111111108,22.222222222222214,0)" xlink:href="#aB"/><use transform="matrix(0.11111111111111108,0,0,0.11111111111111108,44.44444444444443,0)" xlink:href="#aD"/><use transform="matrix(0.11111111111111108,0,0,0.11111111111111108,55.555555555555536,0)" xlink:href="#aB"/></g><path fill="#3a414a" d="M205 0l-28-72H64L36 0H1l101-248h38L239 0h-34zm-38-99l-47-123c-12 45-31 82-46 123h93" id="bf"/><use transform="matrix(0.11111111111111108,0,0,0.11111111111111108,0,0)" xlink:href="#bf" id="Q"/><g id="R"><use transform="matrix(0.11111111111111108,0,0,0.11111111111111108,0,0)" xlink:href="#aC"/><use transform="matrix(0.11111111111111108,0,0,0.11111111111111108,22.222222222222214,0)" xlink:href="#az"/><use transform="matrix(0.11111111111111108,0,0,0.11111111111111108,44.44444444444443,0)" xlink:href="#ba"/><use transform="matrix(0.11111111111111108,0,0,0.11111111111111108,77.66666666666664,0)" xlink:href="#aQ"/><use transform="matrix(0.11111111111111108,0,0,0.11111111111111108,99.88888888888886,0)" xlink:href="#aH"/><use transform="matrix(0.11111111111111108,0,0,0.11111111111111108,122.11111111111107,0)" xlink:href="#aN"/></g><g id="S"><use transform="matrix(0.11111111111111108,0,0,0.11111111111111108,0,0)" xlink:href="#ax"/><use transform="matrix(0.11111111111111108,0,0,0.11111111111111108,22.222222222222214,0)" xlink:href="#bb"/></g><g id="T"><use transform="matrix(0.11111111111111108,0,0,0.11111111111111108,0,0)" xlink:href="#aN"/><use transform="matrix(0.11111111111111108,0,0,0.11111111111111108,13.222222222222218,0)" xlink:href="#aH"/><use transform="matrix(0.11111111111111108,0,0,0.11111111111111108,35.44444444444443,0)" xlink:href="#aG"/><use transform="matrix(0.11111111111111108,0,0,0.11111111111111108,55.44444444444442,0)" xlink:href="#aH"/><use transform="matrix(0.11111111111111108,0,0,0.11111111111111108,77.66666666666663,0)" xlink:href="#aN"/><use transform="matrix(0.11111111111111108,0,0,0.11111111111111108,90.88888888888884,0)" xlink:href="#aO"/><use transform="matrix(0.11111111111111108,0,0,0.11111111111111108,110.88888888888883,0)" xlink:href="#aB"/><use transform="matrix(0.11111111111111108,0,0,0.11111111111111108,133.11111111111103,0)" xlink:href="#aD"/><use transform="matrix(0.11111111111111108,0,0,0.11111111111111108,144.22222222222214,0)" xlink:href="#aJ"/><use transform="matrix(0.11111111111111108,0,0,0.11111111111111108,152.99999999999991,0)" xlink:href="#ax"/><use transform="matrix(0.11111111111111108,0,0,0.11111111111111108,175.22222222222211,0)" xlink:href="#aC"/><use transform="matrix(0.11111111111111108,0,0,0.11111111111111108,197.44444444444434,0)" xlink:href="#aG"/></g><g id="U"><use transform="matrix(0.11111111111111108,0,0,0.11111111111111108,0,0)" xlink:href="#aI"/><use transform="matrix(0.11111111111111108,0,0,0.11111111111111108,22.222222222222214,0)" xlink:href="#aJ"/><use transform="matrix(0.11111111111111108,0,0,0.11111111111111108,30.99999999999999,0)" xlink:href="#aG"/><use transform="matrix(0.11111111111111108,0,0,0.11111111111111108,50.999999999999986,0)" xlink:href="#aR"/><use transform="matrix(0.11111111111111108,0,0,0.11111111111111108,73.2222222222222,0)" xlink:href="#aP"/><use transform="matrix(0.11111111111111108,0,0,0.11111111111111108,81.99999999999997,0)" xlink:href="#aB"/><use transform="matrix(0.11111111111111108,0,0,0.11111111111111108,104.22222222222219,0)" xlink:href="#ay"/></g><path fill="#3a414a" d="M143 0L79-87 56-68V0H24v-261h32v163l83-92h37l-77 82L181 0h-38" id="bg"/><g id="V"><use transform="matrix(0.11111111111111108,0,0,0.11111111111111108,0,0)" xlink:href="#aB"/><use transform="matrix(0.11111111111111108,0,0,0.11111111111111108,22.222222222222214,0)" xlink:href="#aN"/><use transform="matrix(0.11111111111111108,0,0,0.11111111111111108,35.44444444444443,0)" xlink:href="#aD"/><use transform="matrix(0.11111111111111108,0,0,0.11111111111111108,46.555555555555536,0)" xlink:href="#aA"/><use transform="matrix(0.11111111111111108,0,0,0.11111111111111108,75.3333333333333,0)" xlink:href="#ax"/><use transform="matrix(0.11111111111111108,0,0,0.11111111111111108,97.55555555555551,0)" xlink:href="#aN"/><use transform="matrix(0.11111111111111108,0,0,0.11111111111111108,110.77777777777773,0)" xlink:href="#bg"/><use transform="matrix(0.11111111111111108,0,0,0.11111111111111108,130.77777777777771,0)" xlink:href="#aG"/></g><g id="W"><use transform="matrix(0.11111111111111108,0,0,0.11111111111111108,0,0)" xlink:href="#aN"/><use transform="matrix(0.11111111111111108,0,0,0.11111111111111108,13.222222222222218,0)" xlink:href="#aH"/><use transform="matrix(0.11111111111111108,0,0,0.11111111111111108,35.44444444444443,0)" xlink:href="#aP"/><use transform="matrix(0.11111111111111108,0,0,0.11111111111111108,44.2222222222222,0)" xlink:href="#aB"/><use transform="matrix(0.11111111111111108,0,0,0.11111111111111108,66.44444444444441,0)" xlink:href="#aD"/><use transform="matrix(0.11111111111111108,0,0,0.11111111111111108,77.55555555555551,0)" xlink:href="#aH"/><use transform="matrix(0.11111111111111108,0,0,0.11111111111111108,99.77777777777773,0)" xlink:href="#aI"/></g><g id="X"><use transform="matrix(0.11111111111111108,0,0,0.11111111111111108,0,0)" xlink:href="#aD"/><use transform="matrix(0.11111111111111108,0,0,0.11111111111111108,11.111111111111107,0)" xlink:href="#aF"/><use transform="matrix(0.11111111111111108,0,0,0.11111111111111108,33.33333333333332,0)" xlink:href="#aH"/></g><g id="Y"><use transform="matrix(0.11111111111111108,0,0,0.11111111111111108,0,0)" xlink:href="#aH"/><use transform="matrix(0.11111111111111108,0,0,0.11111111111111108,22.222222222222214,0)" xlink:href="#aS"/><use transform="matrix(0.11111111111111108,0,0,0.11111111111111108,42.22222222222221,0)" xlink:href="#aF"/><use transform="matrix(0.11111111111111108,0,0,0.11111111111111108,64.44444444444443,0)" xlink:href="#aJ"/><use transform="matrix(0.11111111111111108,0,0,0.11111111111111108,73.2222222222222,0)" xlink:href="#aQ"/><use transform="matrix(0.11111111111111108,0,0,0.11111111111111108,95.44444444444441,0)" xlink:href="#aJ"/><use transform="matrix(0.11111111111111108,0,0,0.11111111111111108,104.22222222222219,0)" xlink:href="#aD"/><use transform="matrix(0.11111111111111108,0,0,0.11111111111111108,115.3333333333333,0)" xlink:href="#aJ"/><use transform="matrix(0.11111111111111108,0,0,0.11111111111111108,124.11111111111104,0)" xlink:href="#ax"/><use transform="matrix(0.11111111111111108,0,0,0.11111111111111108,146.33333333333326,0)" xlink:href="#aC"/><use transform="matrix(0.11111111111111108,0,0,0.11111111111111108,168.5555555555555,0)" xlink:href="#aL"/></g><path fill="#3a414a" d="M143 4C61 4 22-44 18-125c-5-107 100-154 193-111 17 8 29 25 37 43l-32 9c-13-25-37-40-76-40-61 0-88 39-88 99 0 61 29 100 91 101 35 0 62-11 79-27v-45h-74v-28h105v86C228-13 192 4 143 4" id="bh"/><g id="Z"><use transform="matrix(0.11111111111111108,0,0,0.11111111111111108,0,0)" xlink:href="#bh"/><use transform="matrix(0.11111111111111108,0,0,0.11111111111111108,31.1111111111111,0)" xlink:href="#ax"/></g><g id="aa"><use transform="matrix(0.11111111111111108,0,0,0.11111111111111108,0,0)" xlink:href="#aB"/><use transform="matrix(0.11111111111111108,0,0,0.11111111111111108,22.222222222222214,0)" xlink:href="#aN"/><use transform="matrix(0.11111111111111108,0,0,0.11111111111111108,35.44444444444443,0)" xlink:href="#aD"/><use transform="matrix(0.11111111111111108,0,0,0.11111111111111108,46.555555555555536,0)" xlink:href="#aA"/><use transform="matrix(0.11111111111111108,0,0,0.11111111111111108,75.3333333333333,0)" xlink:href="#ax"/><use transform="matrix(0.11111111111111108,0,0,0.11111111111111108,97.55555555555551,0)" xlink:href="#aN"/><use transform="matrix(0.11111111111111108,0,0,0.11111111111111108,110.77777777777773,0)" xlink:href="#bg"/><use transform="matrix(0.11111111111111108,0,0,0.11111111111111108,130.77777777777771,0)" xlink:href="#aG"/></g><g id="ab"><use transform="matrix(0.11111111111111108,0,0,0.11111111111111108,0,0)" xlink:href="#aw"/><use transform="matrix(0.11111111111111108,0,0,0.11111111111111108,28.777777777777768,0)" xlink:href="#aJ"/><use transform="matrix(0.11111111111111108,0,0,0.11111111111111108,37.55555555555554,0)" xlink:href="#aG"/><use transform="matrix(0.11111111111111108,0,0,0.11111111111111108,57.555555555555536,0)" xlink:href="#aR"/><use transform="matrix(0.11111111111111108,0,0,0.11111111111111108,79.77777777777774,0)" xlink:href="#aP"/><use transform="matrix(0.11111111111111108,0,0,0.11111111111111108,88.55555555555551,0)" xlink:href="#aB"/><use transform="matrix(0.11111111111111108,0,0,0.11111111111111108,110.77777777777773,0)" xlink:href="#ay"/></g><g id="ac"><use transform="matrix(0.11111111111111108,0,0,0.11111111111111108,0,0)" xlink:href="#aN"/><use transform="matrix(0.11111111111111108,0,0,0.11111111111111108,13.222222222222218,0)" xlink:href="#aH"/><use transform="matrix(0.11111111111111108,0,0,0.11111111111111108,35.44444444444443,0)" xlink:href="#aG"/><use transform="matrix(0.11111111111111108,0,0,0.11111111111111108,55.44444444444442,0)" xlink:href="#aH"/><use transform="matrix(0.11111111111111108,0,0,0.11111111111111108,77.66666666666663,0)" xlink:href="#aN"/><use transform="matrix(0.11111111111111108,0,0,0.11111111111111108,90.88888888888884,0)" xlink:href="#aO"/><use transform="matrix(0.11111111111111108,0,0,0.11111111111111108,110.88888888888883,0)" xlink:href="#aB"/><use transform="matrix(0.11111111111111108,0,0,0.11111111111111108,133.11111111111103,0)" xlink:href="#aD"/><use transform="matrix(0.11111111111111108,0,0,0.11111111111111108,144.22222222222214,0)" xlink:href="#aJ"/><use transform="matrix(0.11111111111111108,0,0,0.11111111111111108,152.99999999999991,0)" xlink:href="#ax"/><use transform="matrix(0.11111111111111108,0,0,0.11111111111111108,175.22222222222211,0)" xlink:href="#aC"/></g><g id="ad"><use transform="matrix(0.11111111111111108,0,0,0.11111111111111108,0,0)" xlink:href="#aE"/><use transform="matrix(0.11111111111111108,0,0,0.11111111111111108,19.999999999999993,0)" xlink:href="#ax"/><use transform="matrix(0.11111111111111108,0,0,0.11111111111111108,42.22222222222221,0)" xlink:href="#aC"/><use transform="matrix(0.11111111111111108,0,0,0.11111111111111108,64.44444444444443,0)" xlink:href="#bb"/><use transform="matrix(0.11111111111111108,0,0,0.11111111111111108,75.55555555555554,0)" xlink:href="#aJ"/><use transform="matrix(0.11111111111111108,0,0,0.11111111111111108,84.33333333333331,0)" xlink:href="#aN"/><use transform="matrix(0.11111111111111108,0,0,0.11111111111111108,97.55555555555553,0)" xlink:href="#ba"/><use transform="matrix(0.11111111111111108,0,0,0.11111111111111108,130.77777777777774,0)" xlink:href="#aB"/><use transform="matrix(0.11111111111111108,0,0,0.11111111111111108,152.99999999999994,0)" xlink:href="#aD"/><use transform="matrix(0.11111111111111108,0,0,0.11111111111111108,164.11111111111106,0)" xlink:href="#aJ"/><use transform="matrix(0.11111111111111108,0,0,0.11111111111111108,172.88888888888883,0)" xlink:href="#ax"/><use transform="matrix(0.11111111111111108,0,0,0.11111111111111108,195.11111111111103,0)" xlink:href="#aC"/></g></defs></g></svg>